# xmcd
#
# Track frame offsets:
#	150
#	15502
#	32030
#	45805
#	64337
#	76275
#	89487
#	99495
#	114232
#	128490
#	137642
#	147985
#	158890
#	171980
#
# Disc length: 2581
#
# Revision: 2
# Processed by: cddbd v1.5.1PL0 Copyright (c) Steve Scherf et al.
# Submitted via: audiograbber 1.81.03
# Normalized: r1:DSETVAR1
#
DISCID=ad0a130e
DTITLE=Various Artist - Country Christmas (Volume 2) - O Christmas Tree
DYEAR=2002
DGENRE=Country
TTITLE0=Tom T. Hall - O Christmas Tree
TTITLE1=Willie Nelson - Deck The Halls
TTITLE2=B.J. Thomas - The First Noel
TTITLE3=Eddy Raven - Have Yourself A Merry Little Christmas
TTITLE4=Kim Carnes - O Little Town Of Bethlehem
TTITLE5=Roy Clark - God Rest Ye Merry, Gentlemen
TTITLE6=Paul Todd - My Favourite Things
TTITLE7=Charley Pride - Joy To The World
TTITLE8=Jeannie C. Riley - Silver Bells
TTITLE9=Tom T. Hall - Jolly Old St, Nicolas
TTITLE10=Larry Gatlin - Iheard The Bells On Christmas Day
TTITLE11=Skeeter Davis - Rudolf, The Red Nosed Reindeer
TTITLE12=Joe Stampley - Please Com Home For Chrismas
TTITLE13=The Lettermen - O Holy Night
EXTD=YEAR: 2002
EXTT0=
EXTT1=
EXTT2=
EXTT3=
EXTT4=
EXTT5=
EXTT6=
EXTT7=
EXTT8=
EXTT9=
EXTT10=
EXTT11=
EXTT12=
EXTT13=
PLAYORDER=
